<?xml version="1.0" encoding="utf-8"?>
<!-- Generator: Adobe Illustrator 26.0.1, SVG Export Plug-In . SVG Version: 6.00 Build 0)  -->
<svg version="1.1" id="ssl" xmlns="http://www.w3.org/2000/svg" xmlns:xlink="http://www.w3.org/1999/xlink" x="0px" y="0px"
	 viewBox="0 0 66 46" style="enable-background:new 0 0 66 46;" xml:space="preserve">
<style type="text/css">
	.st0{fill:#FFC300;}
	.st1{fill:#FFFFFF;}
</style>
<path class="st0" d="M3.9,0c-2,0-3.7,1.7-3.7,3.7V7h65.5V3.7C65.7,1.7,64,0,62,0H3.9z"/>
<g>
	<g>
		<path class="st0" d="M3.9,0c-2,0-3.7,1.7-3.7,3.7V7H15l4-6.9L3.9,0L3.9,0z"/>
	</g>
</g>
<rect x="1.3" y="8" class="st1" width="63.4" height="37"/>
<path class="st0" d="M63.7,9v35H2.3V9H63.7 M65.7,7H0.3v39h65.5V7H65.7z"/>
<path class="st0" d="M62,10.4v32.1H4V10.4H62 M62.4,9.9H3.6v33h58.9V9.9L62.4,9.9z"/>
<circle class="st1" cx="5.4" cy="3.5" r="1"/>
<circle class="st1" cx="8.6" cy="3.5" r="1"/>
<circle class="st1" cx="11.7" cy="3.5" r="1"/>
<path class="st1" d="M55,5.3H22.1c-1,0-1.8-0.8-1.8-1.8l0,0c0-1,0.8-1.8,1.8-1.8H55c1,0,1.8,0.8,1.8,1.8l0,0C56.9,4.5,56,5.3,55,5.3
	z"/>
<g>
	<g>
		<rect x="59.3" y="3.3" class="st1" width="2.9" height="0.5"/>
		<polygon class="st1" points="60.9,5.1 60.6,4.7 61.7,3.5 60.6,2.4 60.9,2 62.5,3.5 		"/>
	</g>
</g>
<polygon class="st0" points="55.2,2.9 54.3,4.2 53.3,2.9 "/>
<g>
	<g>
		<path class="st0" d="M10.7,22.1h1c0.3,0,0.5-0.2,0.5-0.5V20c0-4.9,7.3-4.9,7.3,0v1.6c0,0.3,0.2,0.5,0.5,0.5h1
			c0.3,0,0.5-0.2,0.5-0.5V20c0-3.2-2.6-5.8-5.8-5.8S9.9,16.8,9.9,20l0,0v1.6C10.2,21.9,10.4,22.1,10.7,22.1z"/>
		<path class="st0" d="M23.3,22.7H8.6c-0.6,0-1,0.5-1,1v8.4c0,0.6,0.5,1,1,1h14.7c0.6,0,1-0.5,1-1v-8.4
			C24.3,23.1,23.9,22.7,23.3,22.7z M9.6,31.8c0,0.1-0.1,0.3-0.3,0.3H8.9c-0.1,0-0.3-0.1-0.3-0.3V24c0-0.1,0.1-0.3,0.3-0.3h0.5
			c0.1,0,0.3,0.1,0.3,0.3L9.6,31.8L9.6,31.8z M17,28.7v1.9c0,0.3-0.2,0.5-0.5,0.5h-1c-0.3,0-0.5-0.2-0.5-0.5v-1.9
			c-0.6-0.4-1-1-1-1.8c0-1.2,0.9-2.1,2.1-2.1s2.1,0.9,2.1,2.1C18,27.6,17.6,28.3,17,28.7z"/>
	</g>
</g>
<g>
	<g>
		<path class="st0" d="M30.8,31.7l1.4-1.5c0.2,0.4,0.4,0.8,0.8,1c0.4,0.2,0.8,0.4,1.3,0.4c0.6,0,1-0.1,1.4-0.4
			c0.3-0.3,0.5-0.6,0.5-1.1s-0.6-1.1-1.7-1.6c-0.4-0.2-0.6-0.3-0.9-0.4c-1-0.5-1.7-1-2.1-1.5C31.2,26,31,25.4,31,24.7
			c0-0.9,0.4-1.7,1.1-2.3c0.7-0.6,1.7-0.9,2.9-0.9c0.7,0,1.3,0.1,1.8,0.4c0.5,0.2,0.9,0.6,1.3,1.1l-1.4,1.4
			c-0.2-0.3-0.4-0.6-0.7-0.7c-0.3-0.2-0.6-0.2-1-0.2c-0.5,0-0.9,0.1-1.2,0.4c-0.3,0.2-0.4,0.6-0.4,0.9c0,0.6,0.6,1.2,1.8,1.7
			c0.2,0.1,0.4,0.2,0.5,0.2c1,0.4,1.7,0.9,2.2,1.5s0.7,1.2,0.7,1.9c0,1.1-0.4,1.9-1.1,2.6c-0.7,0.6-1.7,1-2.9,1
			c-0.9,0-1.6-0.2-2.2-0.5C31.6,32.7,31.1,32.3,30.8,31.7z"/>
		<path class="st0" d="M39.8,31.7l1.4-1.5c0.2,0.4,0.4,0.8,0.8,1c0.4,0.2,0.8,0.4,1.3,0.4c0.6,0,1-0.1,1.4-0.4
			c0.3-0.3,0.5-0.6,0.5-1.1s-0.6-1.1-1.7-1.6c-0.4-0.2-0.6-0.3-0.9-0.4c-1-0.5-1.7-1-2.1-1.5c-0.4-0.5-0.6-1.1-0.6-1.8
			c0-0.9,0.4-1.7,1.1-2.3c0.7-0.6,1.7-0.9,2.9-0.9c0.7,0,1.3,0.1,1.8,0.4c0.5,0.2,0.9,0.6,1.3,1.1l-1.4,1.4
			c-0.2-0.3-0.4-0.6-0.7-0.7c-0.3-0.2-0.6-0.2-1-0.2c-0.5,0-0.9,0.1-1.2,0.4c-0.3,0.2-0.4,0.6-0.4,0.9c0,0.6,0.6,1.2,1.8,1.7
			c0.2,0.1,0.4,0.2,0.5,0.2c1,0.4,1.7,0.9,2.2,1.5s0.7,1.2,0.7,1.9c0,1.1-0.4,1.9-1.1,2.6c-0.7,0.6-1.7,1-2.9,1
			c-0.9,0-1.6-0.2-2.2-0.5C40.5,32.7,40.1,32.3,39.8,31.7z"/>
		<path class="st0" d="M49.5,33.2V21.7h2.4v9.4h3.9v2.1H49.5z"/>
	</g>
</g>
<g>
	<g>
		<path class="st0" d="M24.8,2.7l-0.5,1.7H24c0,0-0.1,0-0.1-0.1l-0.3-1c0,0,0-0.1,0-0.1c0,0,0-0.1,0-0.1c0,0,0,0.1,0,0.1
			c0,0,0,0.1,0,0.1l-0.3,1c0,0,0,0.1-0.1,0.1h-0.3l-0.5-1.7h0.3c0,0,0.1,0,0.1,0c0,0,0,0,0,0.1l0.2,0.9c0,0,0,0.1,0,0.1
			c0,0,0,0.1,0,0.1c0,0,0-0.1,0-0.1c0,0,0-0.1,0-0.1l0.3-0.9c0,0,0,0,0-0.1c0,0,0,0,0.1,0h0.2c0,0,0.1,0,0.1,0c0,0,0,0,0,0.1L24,3.6
			c0,0,0,0.1,0,0.1c0,0,0,0.1,0,0.1c0-0.1,0-0.2,0.1-0.3l0.2-0.9c0,0,0,0,0-0.1c0,0,0,0,0.1,0H24.8z"/>
		<path class="st0" d="M27.5,2.7L27,4.3h-0.3c0,0-0.1,0-0.1-0.1l-0.3-1c0,0,0-0.1,0-0.1c0,0,0-0.1,0-0.1c0,0,0,0.1,0,0.1
			c0,0,0,0.1,0,0.1l-0.3,1c0,0,0,0.1-0.1,0.1h-0.3L25,2.7h0.3c0,0,0.1,0,0.1,0c0,0,0,0,0,0.1l0.2,0.9c0,0,0,0.1,0,0.1
			c0,0,0,0.1,0,0.1c0,0,0-0.1,0-0.1c0,0,0-0.1,0-0.1l0.3-0.9c0,0,0,0,0-0.1c0,0,0,0,0.1,0h0.2c0,0,0.1,0,0.1,0c0,0,0,0,0,0.1
			l0.3,0.9c0,0,0,0.1,0,0.1c0,0,0,0.1,0,0.1c0-0.1,0-0.2,0.1-0.3l0.2-0.9c0,0,0,0,0-0.1c0,0,0,0,0.1,0H27.5z"/>
		<path class="st0" d="M30.2,2.7l-0.5,1.7h-0.3c0,0-0.1,0-0.1-0.1l-0.3-1c0,0,0-0.1,0-0.1c0,0,0-0.1,0-0.1c0,0,0,0.1,0,0.1
			c0,0,0,0.1,0,0.1l-0.3,1c0,0,0,0.1-0.1,0.1h-0.3l-0.5-1.7H28c0,0,0.1,0,0.1,0c0,0,0,0,0,0.1l0.2,0.9c0,0,0,0.1,0,0.1
			c0,0,0,0.1,0,0.1c0,0,0-0.1,0-0.1c0,0,0-0.1,0-0.1l0.3-0.9c0,0,0,0,0-0.1c0,0,0,0,0.1,0H29c0,0,0.1,0,0.1,0c0,0,0,0,0,0.1l0.3,0.9
			c0,0,0,0.1,0,0.1c0,0,0,0.1,0,0.1c0-0.1,0-0.2,0.1-0.3l0.2-0.9c0,0,0,0,0-0.1c0,0,0,0,0.1,0H30.2z"/>
		<path class="st0" d="M30.4,4.1C30.4,4.1,30.4,4.1,30.4,4.1c0-0.1,0-0.2,0.1-0.2c0,0,0,0,0.1-0.1c0,0,0.1,0,0.1,0s0.1,0,0.1,0
			c0,0,0.1,0,0.1,0.1c0,0,0,0,0.1,0.1c0,0,0,0.1,0,0.1c0,0,0,0.1,0,0.1c0,0,0,0.1-0.1,0.1c0,0,0,0-0.1,0.1c0,0-0.1,0-0.1,0
			s-0.1,0-0.1,0c0,0-0.1,0-0.1-0.1C30.5,4.3,30.4,4.2,30.4,4.1C30.4,4.2,30.4,4.2,30.4,4.1z"/>
	</g>
</g>
</svg>
