<?xml version="1.0" encoding="utf-8"?>
<!-- Generator: Adobe Illustrator 26.0.1, SVG Export Plug-In . SVG Version: 6.00 Build 0)  -->
<svg version="1.1" id="return" xmlns="http://www.w3.org/2000/svg" xmlns:xlink="http://www.w3.org/1999/xlink" x="0px" y="0px"
	 viewBox="0 0 46 46" style="enable-background:new 0 0 46 46;" xml:space="preserve">
<style type="text/css">
	.st0{fill:#FFC300;}
</style>
<path class="st0" d="M24.3,38.1c0.4,0,0.7-0.3,0.7-0.7v-1.2c0-0.4-0.3-0.7-0.7-0.7c-0.4,0-0.7,0.3-0.7,0.7v1.2
	C23.6,37.8,23.9,38.1,24.3,38.1z"/>
<path class="st0" d="M37.3,38.1c0.4,0,0.7-0.3,0.7-0.7v-1.2c0-0.4-0.3-0.7-0.7-0.7s-0.7,0.3-0.7,0.7v1.2
	C36.7,37.8,37,38.1,37.3,38.1z"/>
<path class="st0" d="M30.8,38.7c0.8,0,1.6-0.3,2.1-0.9c0.2-0.3,0.2-0.7-0.1-1c-0.3-0.2-0.7-0.2-1,0.1s-0.7,0.5-1.1,0.5
	s-0.8-0.2-1.1-0.5c-0.2-0.3-0.7-0.3-1-0.1s-0.3,0.7-0.1,1C29.2,38.4,30,38.7,30.8,38.7z"/>
<path class="st0" d="M9.6,8.2l6.1,5.3c1,0.9,2.7,0.1,2.7-1.2v-1c1.8,0.1,3.4,0.6,4.8,1.3c1.9,1,3.4,2.8,4,4.9
	c0.2,0.7,0.9,1.1,1.6,1.1c0.2,0,0.3,0,0.5,0c0.9,0,1.6-0.8,1.6-1.7l0,0c-0.1-1.6-0.5-3.2-1.1-4.7c-1.2-2.7-3.4-4.9-6.5-6.8
	c-1.6-0.9-3.3-1.5-4.9-2V1.6c0-1.4-1.7-2.1-2.7-1.2L9.6,5.7C8.8,6.3,8.8,7.5,9.6,8.2z M10.5,6.7l6.1-5.3c0.2-0.2,0.5,0,0.5,0.2v2.3
	c0,0.3,0.2,0.6,0.5,0.7c0.1,0,0.3,0.1,0.4,0.1c1.7,0.5,3.2,1,4.7,1.9c2.9,1.7,4.8,3.7,5.9,6.2c0.6,1.3,0.9,2.7,1,4.2l0,0
	c0,0.2-0.1,0.3-0.3,0.3h-0.4l0,0c-0.1,0-0.3-0.1-0.3-0.2c-0.8-2.4-2.5-4.5-4.7-5.7c-1.7-0.9-3.8-1.5-6.1-1.5c-0.4,0-0.7,0.3-0.7,0.7
	v1.8c0,0.2-0.3,0.4-0.5,0.2l-6.1-5.3C10.3,7,10.3,6.8,10.5,6.7z"/>
<path class="st0" d="M2,32.7h1.6v10.6c0,1.5,1.2,2.7,2.7,2.7h33.2c1.5,0,2.7-1.2,2.7-2.7V32.7H44c1.4,0,2.4-1.5,1.9-2.7l-3.6-9
	c-0.1-0.3-0.4-0.4-0.6-0.4h-3.6c-0.4,0-0.7,0.3-0.7,0.7c0,0.4,0.3,0.7,0.7,0.7h3.1c0,0,3.4,8.4,3.4,8.5c0.2,0.4-0.2,0.9-0.6,0.9
	H22.9c-0.3,0-0.5-0.2-0.6-0.4l-3.6-8.9h16.7c0.4,0,0.7-0.3,0.7-0.7s-0.3-0.7-0.7-0.7H4.3c-0.3,0-0.5,0.2-0.6,0.4L0.2,30
	C-0.4,31.2,0.6,32.7,2,32.7z M17.7,39.8c0.4,0,0.7-0.3,0.7-0.7V24.8l2.6,6.6c0.3,0.8,1,1.3,1.9,1.3H41v10.6c0,0.8-0.6,1.4-1.4,1.4
	H18.4v-2.8c0-0.4-0.3-0.7-0.7-0.7c-0.4,0-0.7,0.3-0.7,0.7v2.8H6.4C5.6,44.7,5,44,5,43.3V32.7h7.6c0.8,0,1.6-0.5,1.9-1.3l2.6-6.6
	v14.3C17,39.5,17.3,39.8,17.7,39.8z M1.4,30.4l3.4-8.5h12l-3.6,8.9c-0.1,0.2-0.3,0.4-0.6,0.4H2.1C1.5,31.3,1.2,30.8,1.4,30.4z"/>
</svg>
