<?xml version="1.0" encoding="utf-8"?>
<!-- Generator: Adobe Illustrator 26.0.1, SVG Export Plug-In . SVG Version: 6.00 Build 0)  -->
<svg version="1.1" id="Layer_1" xmlns="http://www.w3.org/2000/svg" xmlns:xlink="http://www.w3.org/1999/xlink" x="0px" y="0px"
	 viewBox="0 0 72 46" style="enable-background:new 0 0 72 46;" xml:space="preserve">
<style type="text/css">
	.st0{fill:#FFC300;}
</style>
<g>
	<g>
		<g>
			<g>
				<path class="st0" d="M64.4,21.8l-1.7-6.9c0.5-0.1,0.8-0.6,0.8-1v-1.1c0-2.4-1.9-4.3-4.3-4.3h-7.8V6.2C51.4,5,50.5,4,49.2,4H9.5
					C8.4,4,7.4,4.9,7.4,6.2V25c0,0.6,0.5,1,1,1s1-0.5,1-1V6.2c0,0,0-0.1,0.1-0.1h39.8c0,0,0.1,0,0.1,0.1V25c0,0.6,0.5,1,1,1
					s1-0.5,1-1v-1.1h12.2l0,0l0,0c1.5,0,2.8,1,3.2,2.4h-3.2c-0.6,0-1,0.5-1,1v2.3c0,1.8,1.5,3.3,3.3,3.3h1.1v4.5h-2.8
					c-0.9-2.6-3.3-4.4-6.2-4.4c-2.9,0-5.3,1.8-6.2,4.4h-0.5v-7.8c0-0.6-0.5-1-1-1s-1,0.5-1,1v7.8H27.9c-0.9-2.6-3.3-4.4-6.2-4.4
					s-5.3,1.8-6.2,4.4h-6c0,0-0.1,0-0.1-0.1v-2.3h4.5c0.6,0,1-0.5,1-1c0-0.6-0.5-1-1-1H4c-0.6,0-1,0.5-1,1c0,0.6,0.5,1,1,1h3.4v2.3
					c0,1.1,0.9,2.1,2.1,2.1h5.5c0,0,0,0,0,0.1c0,3.6,2.9,6.6,6.6,6.6s6.6-2.9,6.6-6.6c0,0,0,0,0-0.1h23.3c0,0,0,0,0,0.1
					c0,3.6,2.9,6.6,6.6,6.6c3.6,0,6.6-2.9,6.6-6.6c0,0,0,0,0-0.1H68c0.6,0,1-0.5,1-1V27.2C69,24.4,67.1,22.1,64.4,21.8z M51.4,10.5
					h7.8c1.2,0,2.3,1,2.3,2.3v0.1H51.4V10.5z M51.4,21.7v-6.8h9.2l1.7,6.8H51.4L51.4,21.7z M21.6,43.9c-2.5,0-4.5-2-4.5-4.5
					s2-4.5,4.5-4.5s4.5,2,4.5,4.5S24.1,43.9,21.6,43.9z M58.1,43.9c-2.5,0-4.5-2-4.5-4.5s2-4.5,4.5-4.5s4.5,2,4.5,4.5
					S60.5,43.9,58.1,43.9z M67,30.5h-1.1c-0.7,0-1.1-0.6-1.1-1.1v-1.1h2.4L67,30.5L67,30.5z"/>
			</g>
		</g>
		<g>
			<g>
				<path class="st0" d="M21.6,37.2c-1.1,0-2.1,0.9-2.1,2.1c0,1.2,0.9,2.1,2.1,2.1c1.1,0,2.1-0.9,2.1-2.1
					C23.8,38.2,22.8,37.2,21.6,37.2z"/>
			</g>
		</g>
		<g>
			<g>
				<path class="st0" d="M58.1,37.2c-1.1,0-2.1,0.9-2.1,2.1c0,1.2,0.9,2.1,2.1,2.1c1.1,0,2.1-0.9,2.1-2.1
					C60.2,38.1,59.3,37.2,58.1,37.2z"/>
			</g>
		</g>
		<g>
			<g>
				<path class="st0" d="M46,32.8H30.5c-0.6,0-1,0.5-1,1c0,0.6,0.5,1,1,1H46c0.6,0,1-0.5,1-1C47,33.2,46.5,32.8,46,32.8z"/>
			</g>
		</g>
		<g>
			<g>
				<path class="st0" d="M19.4,28.4H6.1c-0.6,0-1,0.5-1,1c0,0.6,0.5,1,1,1h13.2c0.6,0,1-0.5,1-1C20.5,28.8,20,28.4,19.4,28.4z"/>
			</g>
		</g>
		<g>
			<g>
				<path class="st0" d="M38.9,14.3c-0.5-0.5-1-0.5-1.5,0l-9.2,9.2l-4.9-4.8c-0.5-0.5-1-0.5-1.5,0c-0.5,0.5-0.5,1,0,1.5l5.5,5.5
					c0.2,0.2,0.5,0.3,0.7,0.3s0.6-0.1,0.7-0.3l10-10C39.4,15.3,39.4,14.7,38.9,14.3z"/>
			</g>
		</g>
	</g>
</g>
</svg>
