<?xml version="1.0" encoding="utf-8"?>
<!-- Generator: Adobe Illustrator 26.0.1, SVG Export Plug-In . SVG Version: 6.00 Build 0)  -->
<svg version="1.1" id="authentic" xmlns="http://www.w3.org/2000/svg" xmlns:xlink="http://www.w3.org/1999/xlink" x="0px" y="0px"
	 viewBox="0 0 36 46" style="enable-background:new 0 0 36 46;" xml:space="preserve">
<style type="text/css">
	.st0{fill:#FFC300;}
</style>
<path class="st0" d="M35.5,9.3L18.2,0.1c-0.3-0.1-0.6-0.1-0.8,0L0.5,9.3c-0.3,0.2-0.4,0.4-0.4,0.8v12C0.1,32,6,40.9,15,44.9l2.3,1
	c0.2,0.1,0.5,0.1,0.7,0l2.6-1.1c9.2-3.9,15.2-12.9,15.2-22.9V10.1C35.9,9.8,35.7,9.5,35.5,9.3z M34.2,21.9c0,9.3-5.6,17.7-14.2,21.3
	l0,0l-2.3,1l-2-0.9c-8.4-3.7-13.9-12-13.9-21.2V10.6l16-8.7l16.4,8.8V21.9z"/>
<path class="st0" d="M11.6,20.9c-0.5-0.6-1.4-0.6-1.8,0c-0.5,0.5-0.5,1.4,0.1,2l6.8,6.8c0.4,0.6,1.3,0.6,1.8,0l13-13.8
	c0.5-0.5,0.5-1.4,0-2s-1.3-0.6-1.8,0L17.4,26.8L11.6,20.9z"/>
</svg>
