<svg width="244" height="46" viewBox="0 0 244 46" fill="none" xmlns="http://www.w3.org/2000/svg">
<g clip-path="url(#clip0_364_3121)">
<path d="M51.2033 40.5477L44.3667 21.1279H47.7275L52.81 36.9783H52.9251L57.9662 21.1279H61.2533L54.4305 40.5477H51.1987H51.2033Z" fill="#393839"/>
<path d="M66.4048 33.662C66.4048 36.5782 68.1864 38.372 70.9901 38.372C73.7938 38.372 75.6031 36.5644 75.6031 33.662V21.1279H78.5219V33.8046C78.5219 38.1007 75.5018 40.9478 70.9901 40.9478C66.4784 40.9478 63.4722 38.0593 63.4722 33.7632V21.1279H66.4048V33.662Z" fill="#393839"/>
<path d="M80.833 40.5477L87.6098 21.1279H90.7864L97.5631 40.5477H94.4187L92.6095 34.9867H85.6301L83.807 40.5477H80.833ZM89.0784 24.3155L86.3299 32.7099H91.9097L89.175 24.3155H89.0738H89.0784Z" fill="#393839"/>
<path d="M118.119 40.5477V31.7991H108.866V40.5477H105.933V21.1279H108.866V29.2647H118.119V21.1279H121.052V40.5477H118.119Z" fill="#393839"/>
<path d="M123.579 40.5477L130.356 21.1279H133.532L140.309 40.5477H137.165L135.356 34.9867H128.376L126.553 40.5477H123.579ZM131.111 19.0673L126.954 16.1787H130.015L133.602 19.0673H131.111ZM131.824 24.3155L129.076 32.7099H134.656L131.921 24.3155H131.82H131.824Z" fill="#393839"/>
<path d="M142.864 40.5477V21.1279H145.525L154.908 35.5525H154.995V21.1279H157.845V40.5477H155.184L145.788 26.0956H145.705V40.5477H142.869H142.864Z" fill="#393839"/>
<path d="M173.954 27.1492C173.641 24.5182 171.703 23.2947 169.456 23.2947C166.721 23.2947 164.488 25.13 164.488 29.4996V32.0893C164.488 35.9438 166.114 38.3908 169.428 38.3908C172.163 38.3908 174.055 36.6981 174.055 34.3799V32.7286H169.368V30.3092H176.886V34.2787C176.886 36.9971 175.036 40.9528 169.424 40.9528C164.111 40.9528 161.551 37.4111 161.551 32.0893V29.4858C161.551 24.0077 164.668 20.7373 169.511 20.7373C174.354 20.7373 176.647 23.7961 176.845 27.1538H173.954V27.1492Z" fill="#393839"/>
<path d="M198.593 40.5477V31.7991H189.335V40.5477H186.402V21.1279H189.335V29.2647H198.593V21.1279H201.526V40.5477H198.593Z" fill="#393839"/>
<path d="M206.005 40.5477V21.1279H208.938V40.5477H206.005Z" fill="#393839"/>
<path d="M225.355 40.5477H213.422V21.1279H225.355V23.6439H216.341V29.4487H224.844V31.8681H216.341V38.0271H225.355V40.5431V40.5477ZM219.333 42.7693C220.272 42.7693 220.986 43.4685 220.986 44.4068C220.986 45.3451 220.272 45.9983 219.333 45.9983C218.449 45.9983 217.74 45.3175 217.74 44.4068C217.74 43.4961 218.454 42.7693 219.333 42.7693Z" fill="#393839"/>
<path d="M231.883 33.662C231.883 36.5782 233.664 38.372 236.468 38.372C239.272 38.372 241.081 36.5644 241.081 33.662V21.1279H244V33.8046C244 38.1007 240.98 40.9478 236.468 40.9478C231.956 40.9478 228.95 38.0593 228.95 33.7632V21.1279H231.883V33.662Z" fill="#393839"/>
<path d="M216.06 19.1134H222.505L222.713 15.3325L220.774 17.3196L219.389 15.3923L217.948 17.223L216.06 15.3325V19.1134Z" fill="#393839"/>
<path d="M24.179 18.9523L16.9695 38.2341C15.6989 34.1174 14.129 29.0761 12.7939 24.9548C10.5841 18.1474 0 18.9523 0 18.9523C0 18.9523 1.12792 21.8179 2.27426 24.2373C7.17268 23.9199 8.52619 26.2611 10.202 35.7318C11.8777 45.2025 19.3405 45.9983 19.3405 45.9983L31.9364 18.9523H24.1744H24.179Z" fill="#F1C61B"/>
<path d="M16.1776 13.6997H27.3049L31.1537 4.88219L31.1122 4.86839L25.956 6.91984C25.9652 6.95203 25.9744 6.97963 25.979 7.01183C26.2414 8.45612 25.0168 9.89121 23.2398 10.2132C21.4627 10.5352 19.81 9.62903 19.5476 8.18014C19.3358 7.01643 20.0908 5.85731 21.32 5.28696L16.5045 0.057149L16.4584 0.00195312L16.4124 0.057149L11.5922 5.28696C12.8214 5.86191 13.5811 7.01643 13.3647 8.18014C13.1023 9.62443 11.4495 10.5352 9.67247 10.2132C7.89541 9.89121 6.67081 8.45612 6.93322 7.01183C6.93783 6.97963 6.94703 6.94743 6.95624 6.91984L1.80462 4.86839L1.76318 4.88219L5.61194 13.6997H16.1776Z" fill="#F1C61B"/>
</g>
<defs>
<clipPath id="clip0_364_3121">
<rect width="244" height="46" fill="white"/>
</clipPath>
</defs>
</svg>
