<svg id="Layer_1" data-name="Layer 1" xmlns="http://www.w3.org/2000/svg" viewBox="0 0 32 9"><path d="M1,0H31a1,1,0,0,1,1,1V8a1,1,0,0,1-1,1H1A1,1,0,0,1,0,8V1A1,1,0,0,1,1,0Z" style="fill:#020a0a"/><path d="M10.61,2.45l-.11.44h-.3l.5-1.55h.37l.5,1.55h-.32l-.14-.44Zm.45-.2-.12-.38-.08-.29h0c0,.09,0,.19-.07.29l-.13.38Z" style="fill:#fff"/><path d="M12,1.75l.18.57a2.45,2.45,0,0,1,.08.29h0a1,1,0,0,1,.08-.29l.16-.57h.3l-.43,1.13h-.28l-.42-1.13Z" style="fill:#fff"/><path d="M13.94,2.62a1.22,1.22,0,0,0,0,.27H13.7V2.77h0a.4.4,0,0,1-.34.15A.32.32,0,0,1,13,2.61v0c0-.28.25-.43.67-.43h0c0-.07,0-.19-.23-.19a.47.47,0,0,0-.3.08l-.06-.18a.68.68,0,0,1,.41-.1.42.42,0,0,1,.47.36.34.34,0,0,1,0,.14Zm-.28-.27c-.2,0-.39,0-.39.21a.14.14,0,0,0,.12.16h0a.22.22,0,0,0,.22-.16V2.35Z" style="fill:#fff"/><path d="M14.5,1.61a.17.17,0,0,1-.18-.13.16.16,0,0,1,.12-.18h.06a.16.16,0,0,1,.18.12.16.16,0,0,1-.12.19Zm-.14,1.28V1.75h.28V2.89Z" style="fill:#fff"/><path d="M15,1.25h.28V2.89H15Z" style="fill:#fff"/><path d="M16.6,2.62a1.22,1.22,0,0,0,0,.27h-.25V2.77h0a.4.4,0,0,1-.33.15.34.34,0,0,1-.36-.31v0c0-.28.25-.43.67-.43h0c0-.07,0-.19-.23-.19a.46.46,0,0,0-.3.08l-.06-.18a.72.72,0,0,1,.41-.1.4.4,0,0,1,.46.36.33.33,0,0,1,0,.14Zm-.27-.27c-.21,0-.4,0-.4.21a.15.15,0,0,0,.14.16h0a.22.22,0,0,0,.22-.16V2.35Z" style="fill:#fff"/><path d="M17,1.25h.28v.67h0a.41.41,0,0,1,.38-.17c.27,0,.46.23.46.57a.53.53,0,0,1-.46.6h0a.39.39,0,0,1-.37-.17h0v.17H17V1.25Zm.28,1.18V2.5a.24.24,0,0,0,.25.19c.19,0,.3-.14.3-.37S17.73,2,17.54,2a.28.28,0,0,0-.25.21v.26Z" style="fill:#fff"/><path d="M18.46,1.25h.28V2.89h-.28Z" style="fill:#fff"/><path d="M19.35,2.41a.32.32,0,0,0,.32.3h0a1.06,1.06,0,0,0,.31,0l0,.19a1.07,1.07,0,0,1-.39.07.54.54,0,0,1-.59-.48V2.35a.56.56,0,0,1,.52-.6h0a.5.5,0,0,1,.5.5v.16Zm.5-.19a.24.24,0,0,0-.21-.28h0a.28.28,0,0,0-.26.28Z" style="fill:#fff"/><path d="M21.5,2.92a.55.55,0,0,1-.57-.52V2.34a.56.56,0,0,1,.52-.59h.09a.54.54,0,0,1,.56.52v0a.55.55,0,0,1-.51.6H21.5Zm0-.2c.16,0,.27-.16.27-.39S21.69,2,21.5,2s-.28.2-.28.39S21.33,2.72,21.5,2.72Z" style="fill:#fff"/><path d="M22.43,2.11V1.77h.25v.17h0a.41.41,0,0,1,.38-.19c.19,0,.39.13.39.5v.64h-.28V2.25c0-.16-.06-.29-.22-.29a.23.23,0,0,0-.21.17.14.14,0,0,0,0,.09v.67h-.29Z" style="fill:#fff"/><path d="M24.76,1.48v.27H25V2h-.27v.5c0,.14,0,.21.15.21a.21.21,0,0,0,.11,0v.21a.36.36,0,0,1-.2,0,.31.31,0,0,1-.25-.09.48.48,0,0,1-.07-.31V2h-.16V1.75h.16V1.56Z" style="fill:#fff"/><path d="M25.35,1.25h.29v.67h0A.39.39,0,0,1,26,1.75c.19,0,.39.13.39.5v.64H26.1V2.25c0-.16-.05-.29-.21-.29a.26.26,0,0,0-.24.25v.68h-.3Z" style="fill:#fff"/><path d="M27,2.41a.32.32,0,0,0,.32.3h0a1.06,1.06,0,0,0,.31,0l0,.19a1,1,0,0,1-.39.07.54.54,0,0,1-.6-.46.41.41,0,0,1,0-.11.57.57,0,0,1,.52-.6h0a.5.5,0,0,1,.51.5.11.11,0,0,1,0,0,.21.21,0,0,1,0,.11Zm.5-.19a.25.25,0,0,0-.19-.28h0a.28.28,0,0,0-.26.28Z" style="fill:#fff"/><path d="M7.07,4.41a1.38,1.38,0,0,1,.67-1.16,1.45,1.45,0,0,0-1.12-.61c-.47,0-.93.28-1.17.28s-.61-.27-1-.27a1.53,1.53,0,0,0-1.27.76,3.16,3.16,0,0,0,.39,3.08c.26.37.56.79,1,.77S5.06,7,5.53,7s.59.24,1,.24.67-.37.93-.75a3.21,3.21,0,0,0,.43-.87,1.32,1.32,0,0,1-.82-1.23" style="fill:#fff"/><path d="M6.31,2.14a1.39,1.39,0,0,0,.31-1,1.37,1.37,0,0,0-.9.47,1.3,1.3,0,0,0-.32.94,1.18,1.18,0,0,0,.91-.43" style="fill:#fff"/><path d="M12.69,7.2h-.54l-.29-1h-1l-.27.93H10L11,4h.63Zm-.92-1.32-.27-.83c0-.08-.08-.28-.16-.6h0c0,.14-.08.33-.15.6l-.26.83Z" style="fill:#fff"/><path d="M15.32,6A1.28,1.28,0,0,1,15,7a.93.93,0,0,1-.7.31.71.71,0,0,1-.65-.33h0V8.14h-.5V4.91h.45l0,.37h0A.91.91,0,0,1,14.88,5a.61.61,0,0,1,.19.17,1.29,1.29,0,0,1,.28.84m-.5,0a1,1,0,0,0-.16-.55.49.49,0,0,0-.44-.23.55.55,0,0,0-.54.45.43.43,0,0,0,0,.16v.39a.57.57,0,0,0,.15.43.53.53,0,0,0,.4.17.52.52,0,0,0,.44-.22A1,1,0,0,0,14.86,6" style="fill:#fff"/><path d="M18,6a1.28,1.28,0,0,1-.32.93,1,1,0,0,1-.7.3.71.71,0,0,1-.65-.33h0V8.14h-.5V4.91h.45l0,.37h0A.91.91,0,0,1,17.52,5a.79.79,0,0,1,.2.17A1.34,1.34,0,0,1,18,6m-.5,0a1.06,1.06,0,0,0-.15-.55.53.53,0,0,0-.49-.23.51.51,0,0,0-.34.13.6.6,0,0,0-.2.32.43.43,0,0,0,0,.16v.39a.6.6,0,0,0,.14.43.56.56,0,0,0,.4.17.52.52,0,0,0,.45-.22A1,1,0,0,0,17.46,6" style="fill:#fff"/><path d="M20.91,6.32a.84.84,0,0,1-.29.65,1.22,1.22,0,0,1-.86.28,1.52,1.52,0,0,1-.83-.2l.13-.42a1.43,1.43,0,0,0,.73.2.66.66,0,0,0,.45-.13.45.45,0,0,0,.16-.35A.48.48,0,0,0,20.27,6a1.48,1.48,0,0,0-.44-.25c-.56-.21-.84-.5-.84-.9a.82.82,0,0,1,.29-.63A1.21,1.21,0,0,1,20.06,4a1.48,1.48,0,0,1,.72.15l-.13.42A1.25,1.25,0,0,0,20,4.42a.57.57,0,0,0-.41.14.37.37,0,0,0-.13.28.41.41,0,0,0,.14.31,1.5,1.5,0,0,0,.47.24,1.6,1.6,0,0,1,.6.39.81.81,0,0,1,.19.56" style="fill:#fff"/><path d="M22.58,5.3H22V6.41q0,.42.3.42h.23v.39a1.07,1.07,0,0,1-.4,0,.64.64,0,0,1-.5-.18,1,1,0,0,1-.17-.62V5.3h-.33V4.91h.33V4.49l.5-.15v.57h.56Z" style="fill:#fff"/><path d="M25.12,6a1.3,1.3,0,0,1-.3.87,1.11,1.11,0,0,1-.82.34,1,1,0,0,1-.81-.34,1.17,1.17,0,0,1-.29-.84,1.2,1.2,0,0,1,.3-.87,1.18,1.18,0,0,1,1.64,0,1.18,1.18,0,0,1,.3.84m-.53,0a.93.93,0,0,0-.14-.54.51.51,0,0,0-.71-.21.47.47,0,0,0-.21.21,1.15,1.15,0,0,0,0,1.1.5.5,0,0,0,.66.26.55.55,0,0,0,.26-.26,1,1,0,0,0,.14-.55" style="fill:#fff"/><path d="M26.77,5.36h-.16a.53.53,0,0,0-.42.2.78.78,0,0,0-.12.45V7.22h-.5V4.91H26v.45h0A.81.81,0,0,1,26.25,5a.63.63,0,0,1,.37-.12h.13Z" style="fill:#fff"/><path d="M29.05,6v.23H27.5a.66.66,0,0,0,.23.5.73.73,0,0,0,.5.16,1.62,1.62,0,0,0,.61-.09l.08.36a1.85,1.85,0,0,1-.77.14,1.07,1.07,0,0,1-.83-.31A1.16,1.16,0,0,1,27,6.09a1.31,1.31,0,0,1,.3-.84.94.94,0,0,1,.79-.36.84.84,0,0,1,.75.36,1.32,1.32,0,0,1,.21.72m-.5-.13a.76.76,0,0,0-.1-.39A.43.43,0,0,0,28,5.24a.46.46,0,0,0-.4.21.7.7,0,0,0-.15.39Z" style="fill:#fff"/></svg>