<?xml version="1.0" encoding="utf-8"?>
<!-- Generator: Adobe Illustrator 23.0.0, SVG Export Plug-In . SVG Version: 6.00 Build 0)  -->
<svg version="1.1" id="Layer_1" xmlns="http://www.w3.org/2000/svg" xmlns:xlink="http://www.w3.org/1999/xlink" x="0px" y="0px"
	 viewBox="0 0 500 160.6" style="enable-background:new 0 0 500 160.6;" xml:space="preserve">
<style type="text/css">
	.st0{fill-rule:evenodd;clip-rule:evenodd;fill:#DA282D;}
	.st1{fill:#FFFFFF;}
</style>
<title>01A4C888-5C08-4E72-A790-500649432FF1</title>
<desc>Created with sketchtool.</desc>
<g>
	<path class="st0" d="M64.3,3c15.1-2.4,30.8,0,44.5,6.8c14.7,7.1,27,19.3,34.5,34c-1.3,0.5-2.5,1.3-3.5,2.4
		c-23.4,23.7-46.7,47.5-70.1,71.2c-11.7-11.9-23.4-23.8-35.1-35.6c-1.3-1.2-2.4-2.8-4.1-3.4c-2.6-1.2-5.9-0.6-7.9,1.5
		c-2.4,2.4-4.7,4.8-7.1,7.2c-2.5,2.8-2.3,7.5,0.4,10c15.7,16,31.4,31.9,47.1,47.9c1.2,1.2,2.3,2.6,4,3.2c2.5,1,5.7,0.5,7.6-1.5
		c25.6-25.9,51.1-51.9,76.6-77.8c2.3,16.3-0.6,33.3-8.3,47.8c-7.1,13.6-18.3,25-31.7,32.1c-14.4,7.8-31.2,10.6-47.3,8
		c-17.8-2.8-34.5-12.3-46.1-26.3c-9.2-11-15.3-24.6-17.4-38.9c-2.3-15.1,0-30.9,6.5-44.8c4.3-9.3,10.4-17.7,17.9-24.5
		C35.8,12,49.7,5.3,64.3,3L64.3,3z M77.2,20.1c-3,1.3-3.5,5.4-2.4,8.2c1.1,3,5.4,3.8,7.6,1.5c1.7-1.8,1.8-4.7,1.1-7
		C82.6,20.3,79.5,19.1,77.2,20.1L77.2,20.1z M86.1,20.1c0.5,3.8,1,7.7,1.4,11.5c0.9,0.2,1.9,0.4,2.9,0.6c1.9-3.4,3.9-6.8,5.7-10.2
		c-1-0.2-1.9-0.4-2.9-0.6c-1.2,2.5-2.5,5-3.6,7.5c-0.1-2.8-0.4-5.6-0.5-8.4C88.1,20.4,87.1,20.2,86.1,20.1L86.1,20.1z M64.7,21.4
		c-1.9,1.1-2.4,3.7-1.9,5.8c0.3,2,1.4,4.2,3.5,4.7c2.3,0.5,4.8-0.4,6.3-2.2c-0.3-1.5-0.6-3.1-0.9-4.6c-1.4,0.3-2.9,0.6-4.4,0.9
		c0.1,0.6,0.2,1.2,0.3,1.8c0.6-0.1,1.2-0.2,1.9-0.3c0.1,0.6,0.2,1.2,0.2,1.9c-0.8,0.3-1.7,0.8-2.6,0.4c-0.9-0.4-1.3-1.5-1.5-2.4
		c-0.3-1.2-0.5-2.5-0.1-3.6c0.5-0.9,1.4-1.1,2.3-1c0.4,0.4,0.8,0.8,1.1,1.4c0.8-0.1,1.7-0.3,2.5-0.5c-0.4-0.9-0.8-1.9-1.7-2.4
		C68.3,20.3,66.2,20.6,64.7,21.4L64.7,21.4z M101.3,24.1c-0.5,3.8-0.9,7.7-1.4,11.5c0.9,0.4,1.7,0.9,2.6,1.3c2.7-2.8,5.4-5.6,8-8.4
		c-0.9-0.5-1.8-0.9-2.7-1.3c-1.8,2.1-3.5,4.2-5.3,6.3c0.6-2.7,1-5.4,1.5-8.2C103.2,24.8,102.3,24.3,101.3,24.1L101.3,24.1z
		 M47.3,28.2c1.6,3.3,3.2,6.7,4.8,10c2.2-1.1,4.5-2.2,6.7-3.4c-0.3-0.6-0.6-1.3-0.9-1.9c-1.5,0.7-2.9,1.4-4.3,2.1
		c-0.4-0.8-0.7-1.5-1.1-2.3c1.2-0.6,2.4-1.3,3.7-1.9c-0.3-0.6-0.6-1.2-0.9-1.8c-1.2,0.6-2.5,1.2-3.7,1.8c-0.4-0.7-0.6-1.4-0.9-2.1
		c1.5-0.7,2.9-1.4,4.4-2.2c-0.3-0.6-0.6-1.3-0.9-1.9C51.8,25.9,49.6,27.2,47.3,28.2L47.3,28.2z M42.1,31.7c1.4,1.8,2.7,3.7,4,5.5
		c-2.3-1.1-4.7-2.1-7.1-3.2c-0.7,0.5-1.4,1.1-2.1,1.6c2.2,3,4.3,5.9,6.5,8.9c0.7-0.6,1.4-1.1,2.1-1.6c-1.3-1.8-2.6-3.7-4-5.5
		c2.3,1.1,4.7,2.1,7,3.2c0.7-0.5,1.4-1.1,2.1-1.6c-2.1-3-4.3-5.9-6.5-8.9C43.5,30.6,42.8,31.2,42.1,31.7L42.1,31.7z M113.1,30.2
		c-2.1,3-4.3,5.9-6.5,8.9c0.7,0.6,1.4,1.1,2.1,1.7c1.3-1.9,2.7-3.7,4-5.5c-0.4,2.6-0.6,5.2-1,7.8c0.7,0.6,1.4,1.2,2.1,1.7
		c2.2-3,4.4-5.9,6.5-8.9c-0.7-0.5-1.4-1.1-2.1-1.6c-1.3,1.8-2.7,3.6-4,5.5c0.3-2.6,0.7-5.2,1-7.8C114.5,31.2,113.8,30.7,113.1,30.2
		L113.1,30.2z M94.2,31.1c-1.1,0.2-1.2,2.1-0.1,2.4c0.9,0.7,2.2-0.3,2.1-1.3C96,31.3,95,30.9,94.2,31.1L94.2,31.1z M60.8,31.5
		c-0.9,0.1-1.6,1.1-1.2,2c0.4,1.1,2,0.9,2.5,0C62.8,32.6,61.8,31.2,60.8,31.5L60.8,31.5z M32.7,39.8c2.5,2.7,5.1,5.3,7.7,7.9
		c0.6-0.6,1.2-1.2,1.8-1.9c-2.6-2.6-5.1-5.3-7.7-7.9C33.9,38.6,33.3,39.2,32.7,39.8L32.7,39.8z M26.4,47.3c2.8,2.3,5.7,4.6,8.6,6.9
		c1.5-1.9,3-3.9,4.5-5.8c-0.5-0.4-1.1-0.8-1.7-1.3c-0.9,1.2-1.8,2.4-2.8,3.6c-2.3-1.9-4.6-3.7-6.9-5.6C27.5,45.9,27,46.6,26.4,47.3
		L26.4,47.3z M24.2,50.6c-0.4,0.8-0.8,1.6-1.2,2.4c2,1,4,2.1,5.9,3.2c-2.6,0-5.1,0.2-7.7,0.2c-0.4,0.8-0.8,1.6-1.2,2.4
		c3.2,1.7,6.4,3.5,9.6,5.1c0.4-0.8,0.8-1.6,1.2-2.4c-2-1.1-4-2.1-6-3.2c2.6,0.1,5.2-0.2,7.8-0.2c0.4-0.8,0.8-1.6,1.2-2.4
		C30.7,54,27.5,52.3,24.2,50.6L24.2,50.6z M20.7,63.4C17.5,64,16,68.5,18.1,71c1.6,1.8,4.3,2.6,6.6,2.2c3.3-0.6,4.7-5.5,2.3-7.8
		C25.4,63.7,22.9,63,20.7,63.4z"/>
	<path class="st0" d="M78.3,22.1c0.9-0.3,2,0,2.4,1c0.6,1.5,0.5,3.3,0,4.8c-0.4,1.2-2,1.7-2.9,0.8c-0.9-1-0.9-2.5-0.8-3.8
		C77.1,23.8,77.3,22.5,78.3,22.1z"/>
	<path class="st0" d="M206.9,41.2c2.2,0.1,4.5-0.2,6.7,0.3c1.7,0.4,2.6,2.2,2.6,3.9c0,8.7,0,17.4,0,26.1c0.1,1.6-0.8,3.3-2.3,3.8
		c-2.3,0.6-4.6,0.3-6.9,0.4c0-4.7,0-9.3,0-14c1.8,0,3.6,0,5.4,0c0-2,0-4.1,0-6.1c-1.8,0-3.6,0-5.4,0C206.9,50.8,206.9,46,206.9,41.2
		z"/>
	<path class="st0" d="M284.5,41.2c2.2,0.1,4.5-0.2,6.7,0.3c1.7,0.4,2.7,2.2,2.6,3.9c0,8.7,0,17.4,0,26.1c0.1,1.6-0.7,3.3-2.3,3.8
		c-2.3,0.7-4.6,0.3-7,0.4c0-4.7,0-9.3,0-14c1.8,0,3.6,0,5.4,0c0-2,0-4.1,0-6.1c-1.8,0-3.6,0-5.4,0C284.5,50.8,284.5,46,284.5,41.2z"
		/>
	<path class="st0" d="M239.2,66.7c1.4-8,2.8-16.1,4.2-24.1c1.4,8,2.8,16.1,4.2,24.1C244.7,66.7,241.9,66.7,239.2,66.7z"/>
	<path class="st0" d="M316.5,67c1.4-8.1,2.8-16.1,4.2-24.1c1.4,8.1,2.8,16.1,4.2,24.1H316.5z"/>
	<path class="st0" d="M20.3,66.1c1.7-0.3,3.6,0.1,5.1,1.2c1.2,0.8,0.7,3.1-0.8,3.2c-1.6,0.2-3.2-0.4-4.6-1.2
		C18.8,68.6,19.1,66.6,20.3,66.1z"/>
	<path class="st0" d="M201.8,109.2c2.3,0.1,4.8-0.3,7.1,0.4c2.7,1,2.6,5.5,0,6.7c-2.2,1-4.8,0.4-7.1,0.6
		C201.8,114.3,201.8,111.8,201.8,109.2z"/>
	<path class="st0" d="M226.1,109.2c2.2-0.6,4.9,0.1,6.3,2.1c1.5,2.1,1.7,4.7,1.6,7.2c0.1,2.5-0.1,5.2-1.5,7.3
		c-2,3.2-7.2,3.2-9.3,0.2c-1.4-1.9-1.8-4.4-1.7-6.8c0-2.1-0.1-4.2,0.7-6.2C222.8,111.2,224.2,109.7,226.1,109.2z"/>
	<path class="st0" d="M278.5,109.2c2.2-0.6,4.9,0.1,6.2,2.1c1.5,2.1,1.7,4.8,1.6,7.3c0.1,2.5-0.1,5.2-1.5,7.3
		c-2,3.2-7.2,3.2-9.3,0.2c-1.4-1.9-1.8-4.4-1.7-6.7c0-2.1-0.1-4.3,0.7-6.2C275.2,111.2,276.7,109.7,278.5,109.2z"/>
	<path class="st0" d="M420.2,109.3c2.3-0.8,5.2-0.2,6.6,1.9c1.6,2.2,1.7,5.1,1.6,7.7c0.1,2.5-0.2,5.2-1.7,7.2
		c-2.2,3-7.4,2.8-9.3-0.4c-1.8-2.8-1.6-6.3-1.5-9.4C416.1,113.5,417.3,110.3,420.2,109.3z"/>
	<path class="st0" d="M201.8,119.5c2,0,4-0.1,6.1,0c1.6,0.1,3.2,1.2,3.5,2.9c0.5,1.9-0.1,4.4-2.1,5.2c-2.4,0.9-5,0.4-7.4,0.5
		C201.8,125.2,201.8,122.3,201.8,119.5z"/>
	<path class="st0" d="M492.8,23c-3.2-2.5-7.2-3.8-11.1-3.8c-109.1,0-218.3,0-327.4,0c8.9,12,15.1,26.2,17.9,41
		c3.2,16.7,2.2,34.2-3.1,50.3c-3.5,10.9-8.8,21.1-15.7,30.1c109.3,0,218.6,0,327.8,0c3.6,0.1,7.2-0.9,10.2-2.9
		c5.1-3.2,8.5-9.1,8.8-15.2V37.2C500,31.7,497.2,26.3,492.8,23z M198.5,95c0-0.9,0-1.8,0-2.7h278.7c0,0.9,0,1.8,0,2.7H198.5z
		 M465.5,24.5c2.9,0,5.8,0,8.8,0c-2.7,2.5-5.5,5.1-8.2,7.6c-2,0-4,0-6,0C461.9,29.6,463.7,27,465.5,24.5z M458.2,34.4
		c2.2,7.3,4.5,14.5,6.7,21.8c2.2-7.3,4.5-14.6,6.7-21.8c2.8,0,5.7,0,8.5,0c-3.6,10.6-7.4,21.3-11,31.9c-0.2,5.4,0,10.9-0.1,16.3
		c-3,0-5.9,0-8.9,0c0-5.1,0-10.1,0-15.2c0.1-1.1-0.4-2-0.8-3c-3.4-10-6.9-20-10.3-30C452,34.3,455.1,34.3,458.2,34.4z M418.7,34.4
		c3,0,5.9,0,8.9,0c0,7,0,13.9,0,20.9c3.7-7,7.6-13.9,11.4-20.9c3,0,5.9,0,8.9,0c-4.1,7.1-8.1,14.3-12.2,21.4
		c4.1,8.9,8.2,17.8,12.2,26.8c-3,0-6.1,0-9.1,0c-2.8-6.4-5.7-12.8-8.5-19.2c-0.8,1.5-1.8,2.8-2.6,4.3c-0.1,4.9,0,9.9,0,14.8
		c-3,0-5.9,0-8.9,0C418.7,66.5,418.7,50.4,418.7,34.4z M375.9,39c1.9-3.1,5.4-4.6,8.8-4.9c3.3-0.3,6.8-0.2,9.8,1.2
		c2.4,1.1,4.3,3.2,5.2,5.8c1.1,3.1,0.7,6.4,0.8,9.7c-2.8,0-5.6,0-8.4,0c-0.1-2.2,0.1-4.5-0.1-6.7c-0.7-4.5-8.7-4.2-8.8,0.5
		c-0.1,8.5,0,17-0.1,25.5c0,1.4-0.1,2.9,0.6,4.2c0.6,1.1,1.8,1.6,3,1.8c1.5,0.2,3.2,0,4.4-1.1c1-1,1.1-2.4,1.1-3.7
		c0-2.9,0-5.8,0-8.7c-1.3,0-2.6,0-4,0c0-2.3,0-4.6,0-6.9c4.1,0,8.3,0,12.4,0c0,5.2,0,10.4,0,15.5c0,3.1-0.9,6.4-3.2,8.6
		c-2.7,2.6-6.7,3.3-10.3,3.2c-3.5,0-7.4-0.8-9.9-3.5c-2.2-2.3-2.9-5.5-2.9-8.6c0-6.8,0-13.6,0-20.5C374.1,46.5,373.8,42.3,375.9,39z
		 M351.7,34.3c3,9.5,5.9,19,8.9,28.5c0-9.5,0-19,0-28.5c2.6,0,5.3,0,7.9,0c0,15.6,0,31.1,0,46.7c-0.1,0.5,0.1,1.1-0.1,1.5
		c-3,0.1-6,0-9,0c-3.6-11.6-7.3-23.2-10.9-34.8c0,11.6,0,23.2,0,34.8c-2.7,0-5.3,0-8,0c0-16.1,0-32.1,0-48.2
		C344.3,34.3,348,34.3,351.7,34.3z M317.3,24.3c0.2,1,0.3,2.3,1.4,2.8c1.5,0.6,3.2,0.6,4.6,0c1.1-0.4,1.3-1.7,1.4-2.8
		c1.8,0,3.5,0,5.3,0c0.1,3.1-1.7,6.3-4.7,7.2c-2.9,0.9-6.1,0.9-8.9-0.1c-2.9-1-4.3-4.2-4.3-7.1C313.8,24.2,315.5,24.3,317.3,24.3z
		 M314.6,34.3c4.3,0,8.6,0,13,0c3,16.1,6,32.1,8.9,48.2c-3,0-5.9,0-8.9,0c-0.5-2.9-1-5.8-1.5-8.7c-3.6,0-7.2,0-10.7,0
		c-0.5,2.9-1,5.8-1.5,8.7c-2.7,0-5.4,0-8.2,0C308.6,66.5,311.6,50.4,314.6,34.3z M275.6,55.6c0-7.1,0-14.2,0-21.2c5,0,10.1,0,15.1,0
		c3.4,0.1,7.1,1,9.4,3.6c2,2.3,2.6,5.5,2.6,8.5c0,6.7,0,13.4,0,20.1c0,2.5,0.1,5.1-0.4,7.5c-0.5,2.4-1.8,4.8-3.8,6.2
		c-2.6,1.8-5.9,2.2-8.9,2.3c-4.7,0-9.3,0-14,0c0-7,0-13.9,0-20.9c-1,0-1.9,0-2.9,0c0-2,0-4.1,0-6.1
		C273.7,55.6,274.7,55.6,275.6,55.6z M237.9,24.9c2.5-0.7,5,0.4,7.3,1.3c1.8,0.8,4.3,0.3,5.2-1.7c1.4,0.9,2.8,1.7,4.3,2.6
		c-0.9,2.3-2.8,4.2-5.2,4.6c-2.4,0.6-4.8-0.4-6.9-1.3c-1.9-0.8-4.4-0.5-5.3,1.6c-1.4-0.9-2.9-1.7-4.3-2.6
		C233.8,27.2,235.5,25.3,237.9,24.9z M237.3,34.1c4.3,0,8.6,0,12.9,0c3,16.1,6,32.2,8.9,48.3c-3,0-5.9,0-8.9,0
		c-0.6-2.9-1-5.8-1.5-8.7c-3.6,0-7.2,0-10.7,0c-0.5,2.9-0.9,5.9-1.6,8.7c-2.7,0.1-5.4,0-8.1,0C231.3,66.3,234.3,50.2,237.3,34.1z
		 M198,55.6c0-7.1,0-14.2,0-21.2c5,0,10,0,15.1,0c3.4,0.1,7.1,1,9.4,3.7c2,2.3,2.6,5.5,2.6,8.5c0,7.8,0,15.7,0,23.5
		c0,3.1-0.5,6.5-2.6,8.9c-2.3,2.7-6,3.6-9.4,3.7c-5,0-10,0-15.1,0c0-6.9,0-13.9,0-20.8c-1,0-1.9,0-2.9,0c0-2,0-4.1,0-6.1
		C196,55.6,197,55.6,198,55.6z"/>
	<g>
		<path class="st1" d="M199.4,129.7v-24.6h6.7c2.3,0,4.1,0.6,5.3,1.7c1.3,1.1,1.9,2.8,1.9,5c0,1.2-0.3,2.2-0.9,3.1
			c-0.6,0.9-1.4,1.6-2.4,2c1.3,0.3,2.3,1,3,2.1c0.7,1.1,1.1,2.4,1.1,3.9c0,2.3-0.6,4-1.9,5.2c-1.3,1.2-3,1.8-5.2,1.8H199.4z
			 M202.8,115.7h3.7c1.1,0,2-0.3,2.6-1s0.9-1.7,0.9-3c0-1.4-0.3-2.4-1-3.1c-0.7-0.7-1.6-1-2.9-1h-3.4V115.7z M202.8,118.2v8.9h4.3
			c1.2,0,2.1-0.4,2.8-1.1c0.6-0.8,1-1.8,1-3.2c0-1.4-0.3-2.5-0.8-3.3c-0.6-0.8-1.4-1.2-2.6-1.2H202.8z"/>
		<path class="st1" d="M235.9,120.8c0,2.9-0.7,5.2-2.2,6.8c-1.5,1.6-3.5,2.4-6,2.4c-2.5,0-4.4-0.8-5.9-2.4c-1.4-1.6-2.2-3.9-2.2-6.8
			V114c0-2.9,0.7-5.2,2.2-6.8c1.5-1.6,3.4-2.5,5.8-2.5c2.5,0,4.5,0.8,5.9,2.5c1.5,1.6,2.2,3.9,2.2,6.8V120.8z M232.6,114
			c0-2.1-0.4-3.8-1.3-4.9c-0.8-1.1-2-1.7-3.6-1.7c-1.5,0-2.7,0.6-3.5,1.7s-1.2,2.7-1.2,4.9v6.8c0,2.2,0.4,3.8,1.2,4.9
			c0.8,1.1,2,1.7,3.5,1.7c1.5,0,2.7-0.6,3.6-1.7c0.8-1.1,1.3-2.8,1.3-4.9V114z M232.6,101.9v0.4h-2.7l-2-2.6l-2,2.6h-2.7v-0.4
			l3.7-3.9h2L232.6,101.9z M229.7,135.4H226V132h3.8V135.4z"/>
		<path class="st1" d="M266.6,122.2l0,0.1c0,2.5-0.7,4.4-1.9,5.7c-1.3,1.3-3.1,2-5.4,2c-2.4,0-4.3-0.8-5.7-2.4
			c-1.4-1.6-2.1-3.9-2.1-6.8V114c0-2.9,0.7-5.2,2.1-6.8c1.4-1.6,3.3-2.5,5.6-2.5c2.4,0,4.2,0.7,5.5,2c1.3,1.3,1.9,3.3,2,5.8l0,0.1
			h-3.2c0-1.8-0.4-3.1-1-4c-0.7-0.9-1.7-1.3-3.1-1.3c-1.4,0-2.5,0.6-3.2,1.7c-0.8,1.1-1.1,2.8-1.1,4.9v6.9c0,2.1,0.4,3.8,1.2,4.9
			c0.8,1.1,1.9,1.7,3.3,1.7c1.4,0,2.4-0.4,3.1-1.2c0.6-0.8,1-2.2,1-4H266.6z"/>
		<path class="st1" d="M288.2,120.8c0,2.9-0.7,5.2-2.2,6.8c-1.5,1.6-3.5,2.4-6,2.4c-2.5,0-4.4-0.8-5.9-2.4c-1.4-1.6-2.2-3.9-2.2-6.8
			V114c0-2.9,0.7-5.2,2.2-6.8c1.5-1.6,3.4-2.5,5.8-2.5c2.5,0,4.5,0.8,5.9,2.5c1.5,1.6,2.2,3.9,2.2,6.8V120.8z M284.8,114
			c0-2.1-0.4-3.8-1.3-4.9c-0.8-1.1-2-1.7-3.6-1.7c-1.5,0-2.7,0.6-3.5,1.7c-0.8,1.1-1.2,2.7-1.2,4.9v6.8c0,2.2,0.4,3.8,1.2,4.9
			c0.8,1.1,2,1.7,3.5,1.7c1.5,0,2.7-0.6,3.6-1.7s1.3-2.8,1.3-4.9V114z M284.8,101.9v0.4h-2.7l-2-2.6l-2,2.6h-2.7v-0.4l3.7-3.9h2
			L284.8,101.9z"/>
		<path class="st1" d="M310.6,129.7h-3.3l-9.2-18.3l-0.1,0v18.3h-3.4v-24.6h3.4l9.2,18.3l0.1,0v-18.2h3.3V129.7z"/>
		<path class="st1" d="M333.1,126.2c-0.6,1-1.5,1.9-2.7,2.7s-2.8,1.2-4.8,1.2c-2.5,0-4.6-0.8-6.1-2.4c-1.5-1.6-2.3-3.8-2.3-6.7v-7.3
			c0-2.9,0.7-5.1,2.2-6.6c1.5-1.6,3.4-2.4,5.9-2.4c2.5,0,4.3,0.6,5.7,1.9c1.3,1.3,2,3,2.1,5.3l0,0.1h-3.2c-0.1-1.5-0.5-2.7-1.2-3.5
			c-0.7-0.8-1.8-1.2-3.3-1.2c-1.5,0-2.6,0.5-3.5,1.6c-0.9,1.1-1.3,2.6-1.3,4.7v7.4c0,2.1,0.5,3.7,1.4,4.8c0.9,1.1,2.2,1.7,3.7,1.7
			c1.1,0,2-0.2,2.7-0.6c0.6-0.4,1.1-0.9,1.4-1.5v-5.6h-4.1v-2.5h7.5V126.2z"/>
		<path class="st1" d="M364.1,107.7h-6.2v22h-3.4v-22h-6.2v-2.6h15.7V107.7z"/>
		<path class="st1" d="M385.6,129.7h-3.3v-10.9H373v10.9h-3.4v-24.6h3.4v11.2h9.3v-11.2h3.3V129.7z"/>
		<path class="st1" d="M407.8,105.1v3.3l0.1,0c1-0.2,1.7-0.7,2.2-1.7c0.5-1,0.7-2.3,0.7-4h2.8c0,2.4-0.5,4.3-1.5,5.7
			c-1,1.4-2.4,2.2-4.4,2.4v11.3c0,2.6-0.7,4.5-2.1,5.9c-1.4,1.4-3.3,2-5.6,2c-2.3,0-4.1-0.7-5.5-2c-1.4-1.4-2.1-3.3-2.1-5.9v-17.1
			h3.3v17.1c0,1.8,0.4,3.1,1.2,4c0.8,0.9,1.8,1.3,3.1,1.3c1.4,0,2.4-0.4,3.2-1.3c0.8-0.9,1.2-2.2,1.2-4v-17.1H407.8z"/>
		<path class="st1" d="M431.2,120.8c0,2.9-0.7,5.2-2.2,6.8c-1.5,1.6-3.5,2.4-6,2.4c-2.5,0-4.4-0.8-5.9-2.4c-1.4-1.6-2.2-3.9-2.2-6.8
			V114c0-2.9,0.7-5.2,2.2-6.8c1.5-1.6,3.4-2.5,5.8-2.5c1.3,0,2.6,0.3,3.6,0.8c1.1,0.5,2,1.2,2.7,2.2c1-0.2,1.8-0.8,2.3-1.8
			c0.5-1,0.8-2.2,0.8-3.8h2.8c0,2.1-0.4,3.9-1.2,5.2c-0.8,1.4-2,2.3-3.5,2.7c0.2,0.6,0.4,1.2,0.5,1.9c0.1,0.7,0.2,1.4,0.2,2.1V120.8
			z M427.9,114c0-2.1-0.4-3.8-1.3-4.9s-2-1.7-3.6-1.7c-1.5,0-2.7,0.6-3.5,1.7c-0.8,1.1-1.2,2.7-1.2,4.9v6.8c0,2.2,0.4,3.8,1.2,4.9
			c0.8,1.1,2,1.7,3.5,1.7c1.5,0,2.7-0.6,3.6-1.7c0.8-1.1,1.3-2.8,1.3-4.9V114z"/>
		<path class="st1" d="M454.6,129.7h-3.3l-9.2-18.3l-0.1,0v18.3h-3.4v-24.6h3.4l9.2,18.3l0.1,0v-18.2h3.3V129.7z"/>
		<path class="st1" d="M477.1,126.2c-0.6,1-1.5,1.9-2.7,2.7s-2.8,1.2-4.8,1.2c-2.5,0-4.6-0.8-6.1-2.4c-1.5-1.6-2.3-3.8-2.3-6.7v-7.3
			c0-2.9,0.7-5.1,2.2-6.6c1.5-1.6,3.4-2.4,5.9-2.4c2.5,0,4.3,0.6,5.7,1.9c1.3,1.3,2,3,2.1,5.3l0,0.1h-3.2c-0.1-1.5-0.5-2.7-1.2-3.5
			c-0.7-0.8-1.8-1.2-3.3-1.2c-1.5,0-2.6,0.5-3.5,1.6c-0.9,1.1-1.3,2.6-1.3,4.7v7.4c0,2.1,0.5,3.7,1.4,4.8c0.9,1.1,2.2,1.7,3.7,1.7
			c1.1,0,2-0.2,2.7-0.6c0.6-0.4,1.1-0.9,1.4-1.5v-5.6h-4.1v-2.5h7.5V126.2z"/>
	</g>
</g>
</svg>
