<svg id="Layer_1" data-name="Layer 1" xmlns="http://www.w3.org/2000/svg" xmlns:xlink="http://www.w3.org/1999/xlink" viewBox="0 0 32 9"><defs><linearGradient id="linear-gradient" x1="7.32" y1="5.73" x2="1.55" y2="5.73" gradientTransform="matrix(1, 0, 0, -1, 0, 10.25)" gradientUnits="userSpaceOnUse"><stop offset="0" stop-color="#ffe000"/><stop offset="0.42" stop-color="#fabc00"/><stop offset="0.78" stop-color="#f6a400"/><stop offset="1" stop-color="#f59b00"/></linearGradient><linearGradient id="linear-gradient-2" x1="5.82" y1="5.17" x2="0.41" y2="-0.24" gradientTransform="matrix(1, 0, 0, -1, 0, 10.25)" gradientUnits="userSpaceOnUse"><stop offset="0" stop-color="#e7383d"/><stop offset="1" stop-color="#c81166"/></linearGradient><linearGradient id="linear-gradient-3" x1="0.38" y1="11.71" x2="4.8" y2="7.29" gradientTransform="matrix(1, 0, 0, -1, 0, 10.25)" gradientUnits="userSpaceOnUse"><stop offset="0" stop-color="#296"/><stop offset="0.15" stop-color="#33a064"/><stop offset="0.52" stop-color="#5baf5f"/><stop offset="0.82" stop-color="#73b95c"/><stop offset="1" stop-color="#7cbc5b"/></linearGradient></defs><path d="M1,0H31a1,1,0,0,1,1,1V8a1,1,0,0,1-1,1H1A1,1,0,0,1,0,8V1A1,1,0,0,1,1,0Z" style="fill:#020a0a"/><path d="M16.15,5a1,1,0,0,0,0,2,1,1,0,0,0,0-2Zm0,1.62a.62.62,0,1,1,.56-.66s0,0,0,0a.59.59,0,0,1-.56.61ZM13.93,5a1,1,0,0,0,0,2,1,1,0,0,0,0-2Zm0,1.62A.62.62,0,0,1,13.27,6a.62.62,0,1,1,1.23-.08V6a.59.59,0,0,1-.56.61ZM11.28,5.25v.43h1a.88.88,0,0,1-.23.57,1.09,1.09,0,0,1-.8.32,1.15,1.15,0,0,1,0-2.29,1.17,1.17,0,0,1,.78.3l.3-.3a1.48,1.48,0,0,0-1.08-.43A1.57,1.57,0,1,0,11.11,7h.17a1.38,1.38,0,0,0,1.47-1.31.57.57,0,0,0,0-.13,1.24,1.24,0,0,0,0-.27Zm10.8.34a.93.93,0,0,0-.86-.65,1,1,0,0,0-1,1v0a1,1,0,0,0,1.84.55l-.35-.23a.57.57,0,0,1-.5.28.5.5,0,0,1-.5-.3l1.36-.56Zm-1.38.34a.56.56,0,0,1,.51-.6h0a.41.41,0,0,1,.38.22Zm-1.1,1H20v-3H19.6Zm-.73-1.74h0A.68.68,0,0,0,18.34,5a1,1,0,0,0,0,2,.66.66,0,0,0,.51-.21h0v.14c0,.39-.2.6-.54.6a.56.56,0,0,1-.5-.36l-.39.16a1,1,0,0,0,.9.6.91.91,0,0,0,1-.87.61.61,0,0,0,0-.19V5h-.42Zm-.5,1.4A.59.59,0,0,1,17.8,6h0a.58.58,0,0,1,.55-.62h0a.57.57,0,0,1,.54.59V6a.56.56,0,0,1-.53.59h0Zm5.8-2.66H23.1v3h.45V5.78h.62a.93.93,0,0,0,0-1.85Zm0,1.43h-.62v-1h.63a.5.5,0,0,1,.5.5.5.5,0,0,1-.5.5Zm2.74-.42a.86.86,0,0,0-.8.45l.4.17a.5.5,0,0,1,.7-.1.48.48,0,0,1,.19.29h0a.93.93,0,0,0-.47-.11c-.42,0-.85.23-.85.67a.68.68,0,0,0,.71.65h0a.65.65,0,0,0,.57-.29h0V6.9h.43V5.75A.82.82,0,0,0,27,4.94h-.08Zm-.06,1.63c-.14,0-.34-.07-.34-.25S26.76,6,27,6a.86.86,0,0,1,.41.1.55.55,0,0,1-.52.47ZM29.35,5l-.5,1.29h0L28.32,5h-.5l.8,1.81-.46,1h.47L29.85,5Zm-4,1.91h.45v-3h-.45Z" style="fill:#fff"/><path d="M2.39,1.56a.48.48,0,0,0-.1.33V7.16a.48.48,0,0,0,.1.33h0l3-2.94V4.49L2.4,1.54Z" style="fill:#70c9f3"/><path d="M6.34,5.55l-1-1V4.49l1-1h0l1.17.67c.33.19.33.5,0,.68l-1.17.67Z" style="fill:url(#linear-gradient)"/><path d="M6.36,5.53l-1-1-3,3a.37.37,0,0,0,.5,0l3.5-2" style="fill:url(#linear-gradient-2)"/><path d="M6.36,3.52l-3.47-2a.39.39,0,0,0-.5,0l3,3Z" style="fill:url(#linear-gradient-3)"/><path d="M10.83,1.75a.53.53,0,0,0-.33-.15.5.5,0,0,0-.5.5v0a.49.49,0,0,0,.46.53h0a.4.4,0,0,0,.44-.37h-.39V2.13h.61c0,.5-.26.73-.66.73a.73.73,0,0,1,0-1.45.7.7,0,0,1,.5.2Z" style="fill:#fff"/><path d="M12.24,1.43v.18H11.6v.45h.56v.19H11.6v.42h.66v.18h-.85V1.43Z" style="fill:#fff"/><path d="M13.5,1.43v.19h-.45V2.84h-.19V1.62h-.43V1.43Z" style="fill:#fff"/><path d="M14.38,1.43V2.84h-.19V1.43Z" style="fill:#fff"/><path d="M15.67,1.43v.19h-.43V2.84h-.18V1.62h-.43V1.43Z" style="fill:#fff"/><path d="M17,1.41a.73.73,0,1,1-.7.74h0A.7.7,0,0,1,17,1.42Zm0,1.26a.49.49,0,0,0,.5-.49v0a.52.52,0,1,0-1,0,.53.53,0,0,0,.51.54Z" style="fill:#fff"/><path d="M18.83,2.84,18.2,1.78V2.84H18V1.43h.18l.64,1.05v-1H19V2.84Z" style="fill:#fff"/></svg>