<svg id="Layer_1" data-name="Layer 1" xmlns="http://www.w3.org/2000/svg" viewBox="0 0 32 9"><path d="M1,0H31a1,1,0,0,1,1,1V8a1,1,0,0,1-1,1H1A1,1,0,0,1,0,8V1A1,1,0,0,1,1,0Z" style="fill:#020a0a"/><path id="AppGallery" d="M10.69,5.68l-.5-1.38-.5,1.38Zm-1.78,1L10,3.93h.42l1.07,2.79h-.4L10.81,6H9.56l-.26.72Zm3.27-.32V7.51h-.34V4.62h.34v.32a.73.73,0,0,1,.27-.28.9.9,0,0,1,.4-.09.77.77,0,0,1,.62.31,1.24,1.24,0,0,1,.23.79,1.2,1.2,0,0,1-.23.8.79.79,0,0,1-.62.3.9.9,0,0,1-.4-.09.73.73,0,0,1-.27-.28Zm1.17-.72a1,1,0,0,0-.16-.6.51.51,0,0,0-.42-.22.47.47,0,0,0-.43.22,1,1,0,0,0-.16.6,1,1,0,0,0,.16.57.5.5,0,0,0,.43.22.51.51,0,0,0,.42-.22,1,1,0,0,0,.16-.53Zm1.26.72V7.51h-.35V4.62h.35v.32a.73.73,0,0,1,.27-.28.9.9,0,0,1,.4-.09.74.74,0,0,1,.61.31,1.25,1.25,0,0,1,.24.79,1.26,1.26,0,0,1-.24.8.77.77,0,0,1-.61.3.9.9,0,0,1-.4-.09.61.61,0,0,1-.27-.28Zm1.16-.72a1.05,1.05,0,0,0-.15-.6.53.53,0,0,0-.43-.22.5.5,0,0,0-.43.22,1.05,1.05,0,0,0-.15.6,1,1,0,0,0,.15.57.53.53,0,0,0,.74.12.34.34,0,0,0,.12-.12,1,1,0,0,0,.15-.53Zm2.83.64V5.57H18V5.25h1v1.2a2,2,0,0,1-1.06.31,1.34,1.34,0,0,1-1-.38,1.47,1.47,0,0,1-.37-1.06,1.48,1.48,0,0,1,.34-1.07,1.39,1.39,0,0,1,1-.39,2.08,2.08,0,0,1,.5.07,1.82,1.82,0,0,1,.45.2v.4a1.5,1.5,0,0,0-.44-.26,1.08,1.08,0,0,0-.5-.09,1,1,0,0,0-.77.28,1.29,1.29,0,0,0-.25.85,1.29,1.29,0,0,0,.25.85,1,1,0,0,0,.77.28h.36a1,1,0,0,0,.32-.12Zm2.33-.66h-.35a1.27,1.27,0,0,0-.58.09.4.4,0,0,0-.05.56l.05.05a.44.44,0,0,0,.33.11.58.58,0,0,0,.46-.2A.76.76,0,0,0,21,5.71v0Zm.34-.13V6.72h-.34V6.39a.83.83,0,0,1-.3.29,1,1,0,0,1-.43.09.72.72,0,0,1-.5-.18.61.61,0,0,1-.18-.5.61.61,0,0,1,.23-.53,1.12,1.12,0,0,1,.71-.18H21A.51.51,0,0,0,20.8,5a.69.69,0,0,0-.44-.13,1.1,1.1,0,0,0-.36,0,.93.93,0,0,0-.33.12v-.3A1.58,1.58,0,0,1,20,4.61a1.93,1.93,0,0,1,.34,0,.89.89,0,0,1,.68.24,1,1,0,0,1,.21.68ZM22,6.72V3.82h.34v2.9Zm1.06,0V3.82h.34v2.9ZM25.9,5.59v.16H24.3a.8.8,0,0,0,.2.55.78.78,0,0,0,.53.17,1.42,1.42,0,0,0,.75-.19v.33a2.29,2.29,0,0,1-.37.12H25a1.12,1.12,0,0,1-.8-.3,1.07,1.07,0,0,1-.29-.78,1.2,1.2,0,0,1,.28-.81.93.93,0,0,1,.75-.3.78.78,0,0,1,.66.27,1,1,0,0,1,.27.76Zm-1.57-.1h1.23A.72.72,0,0,0,25.4,5a.49.49,0,0,0-.4-.13.65.65,0,0,0-.68.62h0Zm3.33-.89V5l-.13-.06h-.15a.57.57,0,0,0-.44.2.75.75,0,0,0-.16.54v1.1h-.34V4.62h.34V5a.63.63,0,0,1,.28-.28.87.87,0,0,1,.42-.1h.08Zm2.15,0-.92,2.28a1.49,1.49,0,0,1-.29.5.52.52,0,0,1-.36.11H28V7.23h.21a.29.29,0,0,0,.22-.06.76.76,0,0,0,.17-.32l.06-.16L27.8,4.62h.36l.65,1.63.66-1.64Z" style="fill:#fff"/><path id="EXPLORE_IT_ON" data-name="EXPLORE IT ON" d="M8.89,3V1.51H9.8v.17H9.08v.43h.69v.14H9.08v.5h.73v.16Zm1.61-.77-.44-.67h.2l.36.54L11,1.51h.21l-.46.69.5.75H11l-.4-.61L10.19,3H10Zm1.41-.5h-.25v.53h.25a.27.27,0,0,0,.21-.07.25.25,0,0,0,.07-.2.22.22,0,0,0-.06-.19.32.32,0,0,0-.21-.08ZM11.5,3V1.51h.44a.66.66,0,0,1,.36.11.42.42,0,0,1,.13.32.39.39,0,0,1-.13.32.44.44,0,0,1-.36.11h-.25V3Zm1.19,0V1.51h.2V2.79h.7V3Zm1.59-1.3a.39.39,0,0,0-.34.16.66.66,0,0,0-.12.43.67.67,0,0,0,.12.43.44.44,0,0,0,.34.16.42.42,0,0,0,.33-.16.64.64,0,0,0,.13-.42.61.61,0,0,0-.13-.43.39.39,0,0,0-.33-.22Zm0-.16a.62.62,0,0,1,.5.21.78.78,0,0,1,.16.55.74.74,0,0,1-.18.55.7.7,0,0,1-1,0h0a.85.85,0,0,1-.18-.55.81.81,0,0,1,.19-.54.63.63,0,0,1,.51-.27Zm1.65.79a.27.27,0,0,1,.12.09.76.76,0,0,1,.12.19l.2.39h-.21L16,2.59a.56.56,0,0,0-.14-.2.28.28,0,0,0-.18,0h-.21V3h-.22V1.51h.44a.62.62,0,0,1,.37.11.39.39,0,0,1,.12.31.34.34,0,0,1-.07.22.29.29,0,0,1-.18.13Zm-.24-.61h-.25v.5h.25a.26.26,0,0,0,.21-.06A.21.21,0,0,0,16,1.87L15.9,1.8a.32.32,0,0,0-.21-.13ZM16.62,3V1.51h.9v.17h-.7v.43h.68v.14h-.68v.5h.73v.16Zm1.87,0V1.51h.19V3Zm.39-1.27V1.51h1.21v.17h-.5V3H19.4V1.68Zm2.62,0a.36.36,0,0,0-.33.16.61.61,0,0,0-.13.43.66.66,0,0,0,.13.43.43.43,0,0,0,.6.06l.07-.06a.69.69,0,0,0,.1-.42.67.67,0,0,0-.12-.43.39.39,0,0,0-.32-.25Zm0-.16a.62.62,0,0,1,.5.21.77.77,0,0,1,.15.55A.8.8,0,0,1,22,2.8a.66.66,0,0,1-.5.2.63.63,0,0,1-.5-.2.77.77,0,0,1-.15-.55A.77.77,0,0,1,21,1.7a.62.62,0,0,1,.5-.21ZM22.5,3V1.51h.26l.62,1.21V1.51h.19V3h-.26l-.64-1.2V3Z" style="fill:#fff"/><path id="Path_5" data-name="Path 5" d="M6.43,1.52H3.87c-1.21,0-1.65.44-1.65,1.64V5.75c0,1.2.44,1.65,1.65,1.65H6.43c1.2,0,1.64-.45,1.64-1.65V3.16C8.07,2,7.64,1.52,6.43,1.52Z" style="fill:#c8102e"/><path id="Path_6" data-name="Path 6" d="M4.72,5.05l-.07.16H4.5l.34-.76H5l.34.76h-.2l-.06-.16Zm0-.14H5l-.12-.27Zm2.5-.46h.16v.76H7.27Zm-.6.62H7v.14H6.5V4.45h.56v.14H6.65v.16h.28v.14H6.65Zm-.44-.62h.16l-.27.76H6l-.18-.5-.17.5H5.5l-.27-.76h.16L5.57,5l.17-.53h.13L6,5Zm-2,0h.16v.43a.3.3,0,0,1-.25.34h0a.09.09,0,0,1-.07,0A.3.3,0,0,1,3.68,5h0V4.45h.16v.43c0,.13.06.2.17.2s.17-.07.17-.19Zm-.87,0h.15v.76H3.38V4.9H3v.31H2.88V4.45H3v.3h.35Zm1.76-1a1,1,0,0,1-1-1h.14A.9.9,0,0,0,6,2.5h.14a1,1,0,0,1-1,1Z" style="fill:#fff;fill-rule:evenodd"/></svg>