<?xml version="1.0" encoding="utf-8"?>
<!-- Generator: Adobe Illustrator 27.3.1, SVG Export Plug-In . SVG Version: 6.00 Build 0)  -->
<!DOCTYPE svg PUBLIC "-//W3C//DTD SVG 1.1//EN" "http://www.w3.org/Graphics/SVG/1.1/DTD/svg11.dtd" [
	<!ENTITY ns_extend "http://ns.adobe.com/Extensibility/1.0/">
	<!ENTITY ns_ai "http://ns.adobe.com/AdobeIllustrator/10.0/">
	<!ENTITY ns_graphs "http://ns.adobe.com/Graphs/1.0/">
	<!ENTITY ns_vars "http://ns.adobe.com/Variables/1.0/">
	<!ENTITY ns_imrep "http://ns.adobe.com/ImageReplacement/1.0/">
	<!ENTITY ns_sfw "http://ns.adobe.com/SaveForWeb/1.0/">
	<!ENTITY ns_custom "http://ns.adobe.com/GenericCustomNamespace/1.0/">
	<!ENTITY ns_adobe_xpath "http://ns.adobe.com/XPath/1.0/">
]>
<svg version="1.1" id="Layer_1" xmlns:x="&ns_extend;" xmlns:i="&ns_ai;" xmlns:graph="&ns_graphs;"
	 xmlns="http://www.w3.org/2000/svg" xmlns:xlink="http://www.w3.org/1999/xlink" x="0px" y="0px" width="240px" height="34px"
	 viewBox="0 0 240 34" style="enable-background:new 0 0 240 34;" xml:space="preserve">
<style type="text/css">
	.st0{fill:#FFFFFF;}
	.st1{fill:url(#SVGID_1_);}
	.st2{fill:url(#SVGID_00000013192841286446020520000006653178605262219453_);}
	.st3{fill:url(#SVGID_00000151538771773084184700000007073384960168202397_);}
	.st4{fill:url(#SVGID_00000038389538513004519660000010897868506538171577_);}
	.st5{fill:url(#SVGID_00000106136195375009059730000010192885730168624015_);}
	.st6{fill:#FF5F00;}
	.st7{fill:#EB001B;}
	.st8{fill:#F79E1B;}
	.st9{fill-rule:evenodd;clip-rule:evenodd;fill:#1A1F71;}
	.st10{fill-rule:evenodd;clip-rule:evenodd;fill:#052E5C;}
	.st11{fill:#0B74E5;}
</style>
<metadata>
	<sfw  xmlns="&ns_sfw;">
		<slices></slices>
		<sliceSourceBounds  bottomLeftOrigin="true" height="30" width="240" x="34" y="2.1"></sliceSourceBounds>
	</sfw>
</metadata>
<g>
	<path class="st0" d="M240,25.3c0,3.1-2.5,5.6-5.6,5.6H204V8.7c0-3.1,2.5-5.6,5.6-5.6H240V25.3z"/>
	
		<linearGradient id="SVGID_1_" gradientUnits="userSpaceOnUse" x1="228.1435" y1="823.8746" x2="238.0174" y2="823.8746" gradientTransform="matrix(1 0 0 1 0 -805.2899)">
		<stop  offset="0" style="stop-color:#007940"/>
		<stop  offset="0.23" style="stop-color:#00873F"/>
		<stop  offset="0.74" style="stop-color:#40A737"/>
		<stop  offset="1" style="stop-color:#5CB531"/>
	</linearGradient>
	<path class="st1" d="M230.1,19.6h2.3h0.3c0.5-0.1,0.8-0.5,0.8-1c0-0.5-0.3-0.9-0.8-1h-2.6L230.1,19.6z"/>
	
		<linearGradient id="SVGID_00000000199153561121128280000016496115359281339529_" gradientUnits="userSpaceOnUse" x1="228.1435" y1="822.2833" x2="238.0174" y2="822.2833" gradientTransform="matrix(1 0 0 1 0 -805.2899)">
		<stop  offset="0" style="stop-color:#007940"/>
		<stop  offset="0.23" style="stop-color:#00873F"/>
		<stop  offset="0.74" style="stop-color:#40A737"/>
		<stop  offset="1" style="stop-color:#5CB531"/>
	</linearGradient>
	<path style="fill:url(#SVGID_00000000199153561121128280000016496115359281339529_);" d="M232.1,5c-2.2,0-4,1.8-4,4c0,0,0,0,0,0
		v4.1h5.6c0.1,0,0.3,0,0.4,0c1.3,0,2.2,0.7,2.2,1.9c0,1-0.8,1.8-1.8,1.8l0,0c1.3,0.1,2.3,0.8,2.3,1.9s-1.1,2-2.6,2h-6.2v8.1h5.9
		c2.2,0,4-1.8,4-4c0,0,0,0,0,0V5H232.1z"/>
	
		<linearGradient id="SVGID_00000113337893702839562120000008287833602846613900_" gradientUnits="userSpaceOnUse" x1="228.1435" y1="820.6912" x2="238.0174" y2="820.6912" gradientTransform="matrix(1 0 0 1 0 -805.2899)">
		<stop  offset="0" style="stop-color:#007940"/>
		<stop  offset="0.23" style="stop-color:#00873F"/>
		<stop  offset="0.74" style="stop-color:#40A737"/>
		<stop  offset="1" style="stop-color:#5CB531"/>
	</linearGradient>
	<path style="fill:url(#SVGID_00000113337893702839562120000008287833602846613900_);" d="M233.2,15.4c0-0.5-0.3-0.9-0.8-1h-0.2
		h-2.1v2h2.1c0.1,0,0.1,0,0.2,0C232.9,16.3,233.3,15.9,233.2,15.4C233.2,15.4,233.2,15.4,233.2,15.4z"/>
	
		<linearGradient id="SVGID_00000078733690641010162330000002056991953445706915_" gradientUnits="userSpaceOnUse" x1="206.0087" y1="822.3159" x2="216.0522" y2="822.3159" gradientTransform="matrix(1 0 0 1 0 -805.2899)">
		<stop  offset="0" style="stop-color:#1F286F"/>
		<stop  offset="0.48" style="stop-color:#004E94"/>
		<stop  offset="0.83" style="stop-color:#0066B1"/>
		<stop  offset="1" style="stop-color:#006FBC"/>
	</linearGradient>
	<path style="fill:url(#SVGID_00000078733690641010162330000002056991953445706915_);" d="M210,5c-2.2,0-4,1.8-4,4c0,0,0,0,0,0v9.9
		c1.1,0.6,2.3,0.9,3.5,0.9c1.1,0.1,2-0.6,2.1-1.7c0-0.1,0-0.2,0-0.3v-4.7h3.4v4.6c0,1.8-1.1,3.3-4.9,3.3c-1.4,0-2.8-0.2-4.1-0.5V29
		h5.9c2.2,0,4-1.8,4-4c0,0,0,0,0,0V5H210z"/>
	
		<linearGradient id="SVGID_00000036234906779800547320000012471577279046406062_" gradientUnits="userSpaceOnUse" x1="217.0174" y1="822.3029" x2="226.7739" y2="822.3029" gradientTransform="matrix(1 0 0 1 0 -805.2899)">
		<stop  offset="0" style="stop-color:#6C2C2F"/>
		<stop  offset="0.17" style="stop-color:#882730"/>
		<stop  offset="0.57" style="stop-color:#BE1833"/>
		<stop  offset="0.86" style="stop-color:#DC0436"/>
		<stop  offset="1" style="stop-color:#E60039"/>
	</linearGradient>
	<path style="fill:url(#SVGID_00000036234906779800547320000012471577279046406062_);" d="M221.1,5c-2.2,0-4,1.8-4,4c0,0,0,0,0,0
		v5.2c1-0.9,2.8-1.4,5.6-1.3c1.1,0.1,2.1,0.2,3.1,0.5v1.7c-0.9-0.5-2-0.8-3-0.9c-2.2-0.2-3.4,0.9-3.4,2.7s1.3,2.9,3.4,2.8
		c1.1-0.1,2.1-0.4,3-0.9v1.7c-1,0.3-2.1,0.4-3.1,0.5c-2.8,0.1-4.6-0.4-5.6-1.3V29h5.9c2.2,0,4-1.8,4-4c0,0,0,0,0,0V5H221.1z"/>
</g>
<g>
	<rect x="170.7" y="7.7" class="st6" width="10.4" height="18.7"/>
	<path class="st7" d="M171.4,17c0-3.6,1.7-7.1,4.5-9.3c-5.2-4-12.6-3.1-16.6,2s-3.1,12.6,2,16.6c4.3,3.4,10.3,3.4,14.6,0
		C173,24.1,171.4,20.6,171.4,17z"/>
	<path class="st8" d="M195.1,17c0,6.5-5.3,11.9-11.8,11.9c-2.7,0-5.3-0.9-7.4-2.5c5.2-4,6-11.5,2-16.6c-0.6-0.7-1.3-1.4-2-2
		c5.1-4,12.6-3.2,16.6,2C194.2,11.7,195.1,14.3,195.1,17z"/>
</g>
<g>
	<path class="st9" d="M117.3,10.2l-3.6,9.3l-1.5-7.9c-0.1-0.8-0.8-1.4-1.6-1.4h-5.9l-0.1,0.4c1.2,0.2,2.3,0.6,3.4,1.2
		c0.5,0.2,0.8,0.7,0.8,1.2l2.8,10.9h3.7l5.6-13.6L117.3,10.2z M122.5,10.2l-2.9,13.6h3.5l2.9-13.6L122.5,10.2z M142.5,13.9l1.1,5.1
		h-2.9L142.5,13.9z M141.9,10.2c-0.7,0-1.2,0.4-1.5,1l-5.2,12.7h3.7l0.7-2h4.5l0.4,2h3.2l-2.8-13.6L141.9,10.2z M126.9,14.5
		c0,2,1.7,3.1,3,3.7s1.8,1.1,1.8,1.7c0,0.9-1.1,1.3-2.1,1.3c-1.2,0-2.5-0.3-3.6-0.9l-0.6,3c1.2,0.5,2.6,0.7,3.9,0.7
		c3.7,0,6.1-1.8,6.1-4.7c0-3.6-4.9-3.8-4.9-5.4c0-0.5,0.5-1,1.5-1.1c1.2-0.1,2.4,0.1,3.4,0.6l0.6-2.9c-1-0.4-2.1-0.6-3.3-0.6
		C129.3,10,126.8,11.8,126.9,14.5L126.9,14.5z"/>
</g>
<g>
	<g>
		<path class="st10" d="M95.6,8c0-2.2-1.8-3.9-3.9-3.9H59.3c-2.2,0-3.9,1.8-3.9,3.9V26c0,2.2,1.8,3.9,3.9,3.9h32.4
			c2.2,0,3.9-1.8,3.9-3.9L95.6,8z M59.3,5.5h32.6c1.3,0.1,2.2,1.2,2.2,2.4v18.3c-0.1,1.3-1.2,2.2-2.4,2.2H59.1
			c-1.3-0.1-2.2-1.2-2.2-2.4V7.8C57,6.5,58,5.5,59.3,5.5z"/>
		<path class="st10" d="M65,22.2l-0.8,2.3h-1.7l3.2-8.9h1.8l3.2,8.9h-1.6l-0.8-2.3H65z M65.4,20.9h2.5l-1.3-3.8l0,0L65.4,20.9z
			 M75.4,24.5v-7.6H78v-1.3h-6.9v1.3h2.7v7.6H75.4z M80.6,18.1v6.3h-1.4v-8.9H81l2.7,6.8l0,0l2.7-6.8h1.8v8.9h-1.4v-6.3l0,0
			l-2.6,6.3h-1.1L80.6,18.1L80.6,18.1z"/>
	</g>
	<path class="st11" d="M85.5,8.4h4.3c0.8,0,1.4,0.6,1.4,1.4v1.4c0,0.8-0.6,1.4-1.4,1.4h-4.3c-0.8,0-1.4-0.6-1.4-1.4V9.8
		C84.1,9,84.7,8.4,85.5,8.4z"/>
</g>
<g>
	<path class="st10" d="M3.2,2c1.3,0,2.3,1,2.3,2.3v0.4H17c1.7,0,2.4,0.5,3.7,2.2l2.3,3.2h20.9c1.4,0,2.5,1.2,2.5,2.6v16.6
		c0,1.4-1.1,2.6-2.5,2.6H16.1c-1.4,0-2.5-1.2-2.5-2.6v-7.6h-2c-1.3-0.1-2.5-0.6-3.4-1.4C8,20.2,7.8,20,7.6,19.8l-0.4-0.4l-0.1-0.1
		H5.4c-0.2,1.1-1.2,1.8-2.2,1.8H2.3c-1.3,0-2.3-1-2.3-2.3c0,0,0,0,0,0V4.3C0,3,1,2,2.3,2c0,0,0,0,0,0H3.2z M5.5,17.9h2.4l0.2,0.3
		l0.2,0.2l0.1,0.1c0.3,0.3,0.5,0.6,0.8,0.8c0.6,0.6,1.4,1,2.3,1.1h2.2v-3.8h-1c-1.2,0.1-2.5-0.4-3.2-1.4L9.4,15
		c-0.3-0.5-0.5-1.1-0.5-1.7v-0.2h1.3c0,0.5,0.1,0.9,0.3,1.3c0.4,0.6,1.1,1,1.9,1h2.9l2.1,1.9c0.9,0.5,1.9,0.6,2.9,0.1
		c0.7-0.4,0.9-0.7,0.7-0.9l-4.7-4.2v-2.1h5l-1.7-2.4c-1-1.4-1.5-1.7-2.6-1.7H5.5V17.9z M3.2,3.1H2.3c-0.6,0-1.1,0.4-1.1,1v14.6
		c0,0.6,0.4,1.1,1,1.1h1c0.6,0,1-0.4,1.1-1V4.3c0-0.6-0.4-1.1-1-1.1L3.2,3.1z M15,29.4V16.8l1.6,1.5l0.2,0.2
		c1.2,0.7,2.8,0.8,4.1,0.1c1.5-0.7,2.1-2.1,1-3.1l-4.3-3.9h26.1c0.7,0,1.3,0.6,1.3,1.3v16.5c0,0.7-0.6,1.3-1.3,1.3H16.2
		C15.5,30.7,15,30.1,15,29.4z"/>
	<circle class="st11" cx="30" cy="17" r="6.8"/>
	<path class="st0" d="M31.3,16.8l-2.2-0.5c-0.3-0.1-0.5-0.3-0.6-0.6c0-0.4,0.4-0.7,0.8-0.7h1.4c0.3,0,0.6,0.1,0.8,0.2
		c0.1,0.1,0.3,0.1,0.4,0l0.4-0.4c0.1-0.1,0.1-0.2,0.1-0.3c0,0,0,0-0.1-0.1c-0.5-0.3-1-0.5-1.6-0.5l0,0v-0.8c0-0.2-0.1-0.3-0.3-0.3
		h-0.6c-0.2,0-0.3,0.1-0.3,0.3V14h-0.1c-1-0.1-1.9,0.7-2,1.7c0,0.1,0,0.1,0,0.2c0.2,0.8,0.8,1.3,1.5,1.5l2.1,0.5
		c0.3,0.1,0.5,0.3,0.6,0.6c0,0.4-0.4,0.7-0.8,0.7h-1.5c-0.3,0-0.6-0.1-0.9-0.2c-0.1-0.1-0.3-0.1-0.4,0l-0.4,0.4
		c-0.1,0.1-0.1,0.2-0.1,0.3c0,0,0,0,0.1,0.1c0.5,0.3,1.1,0.5,1.6,0.5l0,0v0.8c0,0.2,0.1,0.3,0.3,0.3h0.6c0.2,0,0.3-0.1,0.3-0.3v-0.8
		l0,0c0.9,0.1,1.7-0.3,2.1-1.1c0.3-0.9-0.2-1.8-1-2.1C31.5,16.8,31.4,16.8,31.3,16.8z"/>
</g>
</svg>
