<?xml version="1.0" encoding="utf-8"?>
<!-- Generator: Adobe Illustrator 19.0.0, SVG Export Plug-In . SVG Version: 6.00 Build 0)  -->
<svg version="1.1" id="Layer_1" xmlns="http://www.w3.org/2000/svg" xmlns:xlink="http://www.w3.org/1999/xlink" x="0px" y="0px"
	 viewBox="-297 389 16 16" style="enable-background:new -297 389 16 16;" xml:space="preserve">
<style type="text/css">
	.st0{fill:#FFBC1B;}
</style>
<g>
	<g>
		<path class="st0" d="M-289.4,399.3c-0.2,0-0.4-0.1-0.5-0.2l-2.3-2.3c-0.3-0.3-0.3-0.8,0-1.1c0.3-0.3,0.8-0.3,1.1,0l1.7,1.7
			l7.1-7.1c0.3-0.3,0.8-0.3,1.1,0c0.3,0.3,0.3,0.8,0,1.1l-7.6,7.6C-289,399.2-289.2,399.3-289.4,399.3z"/>
	</g>
	<g>
		<path class="st0" d="M-284,404.6h-10.7c-1.3,0-2.3-1-2.3-2.3v-10.6c0-1.3,1-2.3,2.3-2.3h8.4c0.4,0,0.8,0.3,0.8,0.8
			s-0.3,0.8-0.8,0.8h-8.4c-0.4,0-0.8,0.3-0.8,0.8v10.7c0,0.4,0.3,0.8,0.8,0.8h10.7c0.4,0,0.8-0.3,0.8-0.8V397c0-0.4,0.3-0.8,0.8-0.8
			s0.8,0.3,0.8,0.8v5.3C-281.8,403.6-282.8,404.6-284,404.6z"/>
	</g>
</g>
</svg>
