<svg id="Layer_1" data-name="Layer 1" xmlns="http://www.w3.org/2000/svg" viewBox="0 0 78 14"><defs><style>.cls-1{fill:#cccccb;}</style></defs><path class="cls-1" d="M3.37,14a.5.5,0,0,1-.7-.56L3.45,9,.16,5.85A.52.52,0,0,1,.42,5L5,4.31l2-4a.49.49,0,0,1,.87,0l2,4L14.51,5a.52.52,0,0,1,.26.89L11.48,9l.78,4.41a.5.5,0,0,1-.7.56L7.47,11.84,3.37,14Z"/><path class="cls-1" d="M19.14,14a.5.5,0,0,1-.7-.56L19.22,9,15.93,5.85A.52.52,0,0,1,16.19,5l4.57-.65,2-4a.49.49,0,0,1,.87,0l2,4L30.28,5a.52.52,0,0,1,.26.89L27.25,9,28,13.39a.5.5,0,0,1-.7.56l-4.1-2.11L19.14,14Z"/><path class="cls-1" d="M34.9,14a.49.49,0,0,1-.69-.56L35,9,31.69,5.85A.53.53,0,0,1,32,5l4.57-.65,2-4a.48.48,0,0,1,.86,0l2,4L46,5a.53.53,0,0,1,.27.89L43,9l.77,4.41a.49.49,0,0,1-.69.56L39,11.84,34.9,14Z"/><path class="cls-1" d="M50.67,14a.5.5,0,0,1-.7-.56L50.75,9,47.46,5.85A.52.52,0,0,1,47.72,5l4.58-.65,2-4a.49.49,0,0,1,.87,0l2,4L61.81,5a.52.52,0,0,1,.26.89L58.79,9l.77,4.41a.5.5,0,0,1-.7.56l-4.09-2.11L50.67,14Z"/><path class="cls-1" d="M66.44,14a.5.5,0,0,1-.7-.56L66.52,9,63.23,5.85A.52.52,0,0,1,63.49,5l4.57-.65,2-4a.49.49,0,0,1,.87,0l2,4L77.58,5a.52.52,0,0,1,.26.89L74.55,9l.78,4.41a.5.5,0,0,1-.7.56l-4.1-2.11L66.44,14Z"/></svg>